<?xml version="1.0" encoding="UTF-8"?><svg id="_レイヤー_2" xmlns="http://www.w3.org/2000/svg" viewBox="0 0 42.11 17.56"><defs><style>.cls-1{stroke-linejoin:round;}.cls-1,.cls-2{fill:none;stroke:#8cc63f;stroke-linecap:round;}.cls-3{fill:#fff;}.cls-4{fill:#6a5c57;}.cls-5{fill:#8cc63f;}.cls-2{stroke-miterlimit:10;}</style></defs><g id="_レイヤー_1-2"><g><g><path class="cls-5" d="m19.76,4.55c-.41-.56-.85-.9-1.79-.9-.85,0-1.36.38-1.36,1.08,0,.79.62,1.1,1.78,1.36,1.67.36,2.53.98,2.53,2.47,0,1.24-.83,2.37-2.82,2.37-1.42,0-2.41-.43-3.09-1.35l1.09-.76c.49.59.98.9,1.93.9,1.14,0,1.5-.5,1.5-1.1,0-.66-.37-1.07-1.81-1.38-1.6-.34-2.49-1.1-2.49-2.51,0-1.25.82-2.29,2.76-2.29,1.32,0,2.24.44,2.83,1.35l-1.06.76Z"/><path class="cls-5" d="m23.72,7.8v3.02h-1.39V2.55h2.82c1.91,0,3.05.91,3.05,2.61s-1.13,2.64-3.05,2.64h-1.43Zm1.28-1.2c1.27,0,1.8-.49,1.8-1.44s-.53-1.4-1.8-1.4h-1.28v2.84h1.28Z"/><path class="cls-5" d="m32.16,10.93c-1.85,0-3.09-1.12-3.09-3.72v-1.06c0-2.6,1.25-3.72,3.09-3.72s3.11,1.12,3.11,3.72v1.06c0,2.6-1.25,3.72-3.11,3.72Zm-1.7-3.72c0,1.79.6,2.51,1.7,2.51s1.72-.72,1.72-2.51v-1.06c0-1.79-.61-2.51-1.72-2.51s-1.7.72-1.7,2.51v1.06Z"/><path class="cls-5" d="m42.08,2.55v1.21h-2.38v7.06h-1.39V3.76h-2.39v-1.21h6.15Z"/></g><g><path class="cls-4" d="m24.13,14.21h-1.67v-.46h1.96v-.79h.54v.79h1.96v.46h-1.67c.4.77,1.03,1.53,1.88,2.27l-.29.46c-.75-.65-1.37-1.42-1.88-2.3v1.63h1.07v.45h-1.07v.84h-.54v-.84h-1.07v-.45h1.07v-1.63c-.5.88-1.13,1.65-1.88,2.3l-.29-.46c.85-.74,1.47-1.5,1.88-2.27Z"/><path class="cls-4" d="m27.38,17.01c.65-.33,1.16-.79,1.51-1.38.35-.59.53-1.27.53-2.04v-.57h.55v.57c0,.78.18,1.46.53,2.04.35.59.85,1.05,1.51,1.38l-.29.42c-.45-.21-.85-.53-1.2-.95-.35-.42-.61-.9-.8-1.43-.19.53-.46,1.01-.81,1.43-.36.42-.76.74-1.22.95l-.29-.42Z"/><path class="cls-4" d="m34.92,17.48h-.52v-2.01s-.04.04-.08.08-.06.07-.07.08l-.13-.16v1.5h-.92v.4h-.47v-1.77c-.11.18-.21.33-.31.45l-.15-.61c.37-.48.6-1.09.71-1.84h-.54v-.45h1.69v.15h.92c.04-.11.08-.25.12-.42l.51.05c-.06.21-.09.33-.11.37h1.37v.91h-.5v-.47h-1.02c-.09.23-.19.46-.31.67h.58c.06-.18.12-.36.17-.53l.48.06c-.05.17-.09.33-.15.48h.66v.4h-.74v.4h.67v.39h-.67v.41h.67v.39h-.67v.42h.8v.43h-2v.22Zm-1.72-.93h.47v-1.42h-.47v1.42Zm1.29-2.8v.57h-.49v-.71h-.53c-.06.38-.14.74-.25,1.08h.9v.35c.3-.38.56-.81.77-1.29h-.4Zm1.12,1.47v-.4h-.69v.4h.69Zm0,.8v-.41h-.69v.41h.69Zm0,.39h-.69v.42h.69v-.42Z"/><path class="cls-4" d="m37.43,14.32v-.45h1.73v.45h-1.73Zm.13-.72v-.44h1.5v.44h-1.5Zm.48,3.73v.2h-.48v-1.5h1.52v.85c.13-.35.23-.74.3-1.17l.44.1c-.09.59-.23,1.08-.4,1.47l-.34-.16v.2h-1.04Zm-.44-2.3v-.43h1.45v.43h-1.45Zm0,.71v-.43h1.45v.43h-1.45Zm.44,1.16h.59v-.45h-.59v.45Zm1.3-2.83l.2-.38c.2.07.4.16.58.25.04-.12.08-.23.1-.35h-.93v-.45h2.6c0,.58-.02,1.03-.06,1.34-.04.31-.1.52-.18.62-.08.1-.19.16-.32.16-.11,0-.31-.02-.6-.05l-.02-.42c-.19-.12-.31-.2-.36-.23-.28.43-.64.74-1.08.94l-.22-.44c.37-.17.66-.41.88-.74-.2-.1-.39-.19-.59-.26Zm1.85,1.76l.46-.16c.19.45.34.92.46,1.39l-.46.15c-.06-.24-.13-.46-.19-.67-.02.27-.04.46-.07.58-.03.12-.07.19-.12.23-.05.03-.14.06-.25.07-.11,0-.23.02-.38.02-.04,0-.17,0-.38-.02-.15,0-.25-.04-.3-.09-.04-.05-.07-.16-.07-.33v-1.4h.45c-.13-.1-.24-.18-.34-.24l.29-.33c.36.24.65.47.89.71l-.3.33c-.16-.15-.3-.28-.44-.4v1.13c0,.09,0,.14.01.16,0,.02.04.03.09.03.03,0,.07,0,.15,0,.06,0,.11,0,.14,0,.04,0,.06-.02.08-.04.02-.02.03-.08.05-.17.01-.09.02-.23.03-.42l.42.04c-.09-.25-.16-.44-.22-.57Zm-.62-1.66c.14.08.3.18.49.3l-.21.3c.11.02.21.02.3.02.16,0,.24-.4.25-1.21h-.63c-.03.17-.1.36-.19.58Z"/></g><ellipse class="cls-4" cx="6.5" cy="7.48" rx="6.5" ry="6.38"/><path class="cls-4" d="m6.22,17.21l-3.29-7.17c-.09-.2.06-.43.28-.43h6.59c.22,0,.37.23.28.43l-3.29,7.17c-.11.24-.45.24-.56,0Z"/><circle class="cls-3" cx="6.5" cy="7.48" r="4.84"/><line class="cls-1" x1="9.02" y1="6.37" x2="5.7" y2="9.69"/><line class="cls-2" x1="5.7" y1="9.69" x2="3.98" y2="7.78"/></g></g></svg>